<svg width="320" height="320" viewBox="0 0 320 320" fill="none" xmlns="http://www.w3.org/2000/svg">
  <defs>
    <linearGradient id="g" x1="64" y1="20" x2="260" y2="290" gradientUnits="userSpaceOnUse"><stop stop-color="#27D7C7"/><stop offset=".55" stop-color="#4A83FF"/><stop offset="1" stop-color="#7A5CFF"/></linearGradient>
    <linearGradient id="w" x1="90" y1="70" x2="230" y2="250" gradientUnits="userSpaceOnUse"><stop stop-color="#FFFFFF"/><stop offset="1" stop-color="#E9F7FF"/></linearGradient>
    <filter id="s" x="10" y="10" width="300" height="300" filterUnits="userSpaceOnUse"><feDropShadow dx="0" dy="18" stdDeviation="18" flood-color="#1261A6" flood-opacity=".23"/></filter>
  </defs>
  <circle cx="160" cy="160" r="128" fill="url(#g)" opacity=".14"/>
  <path d="M75 201c5 52 172 52 178 0 5-41-13-82-36-102-33-29-83-29-116 0-23 20-31 61-26 102Z" fill="url(#w)" filter="url(#s)"/>
  <path d="M104 137c5-38 105-38 111 0 4 27-14 53-56 53s-59-26-55-53Z" fill="#102331"/>
  <circle cx="133" cy="152" r="15" fill="#27D7C7"/><circle cx="185" cy="152" r="15" fill="#27D7C7"/>
  <circle cx="138" cy="147" r="5" fill="white"/><circle cx="190" cy="147" r="5" fill="white"/>
  <path d="M145 178c11 8 25 8 36 0" stroke="#27D7C7" stroke-width="7" stroke-linecap="round"/>
  <path d="M160 58v34" stroke="#4A83FF" stroke-width="12" stroke-linecap="round"/>
  <circle cx="160" cy="44" r="18" fill="#27D7C7" stroke="white" stroke-width="8"/>
  <path d="M86 197c-29 4-42-10-40-29 1-12 9-22 21-25" stroke="#4A83FF" stroke-width="14" stroke-linecap="round"/>
  <path d="M234 197c29 4 42-10 40-29-1-12-9-22-21-25" stroke="#4A83FF" stroke-width="14" stroke-linecap="round"/>
  <rect x="124" y="217" width="72" height="34" rx="17" fill="#E8FBFF" stroke="#4A83FF" stroke-width="5"/>
  <path d="M160 224v20M150 234h20" stroke="#27D7C7" stroke-width="7" stroke-linecap="round"/>
</svg>
